<?xml version="1.0" encoding="UTF-8" standalone="no"?>
<!-- Created by diasvg.py -->
<svg width="42.715cm" height="23.900cm" viewBox="2.350 0.500 45.065 24.400"
 xmlns="http://www.w3.org/2000/svg"
 xmlns:xlink="http://www.w3.org/1999/xlink">
<polygon fill="#FFFFFF" stroke="none" stroke-width="0.100" points="3.550,8.443 11.000,8.443 11.000,20.907 3.550,20.907 "/>
<path stroke="none" fill="#FFFFFF" stroke-width="0.100" d="M 3.550,8.443 C 7.275,5.950 11.000,8.443 11.000,8.443 L 3.550,8.443 "/>
<path stroke="none" fill="#FFFFFF" stroke-width="0.100" d="M 3.550,20.907 C 7.275,23.400 11.000,20.907 11.000,20.907 L 3.550,20.907 "/>
<line x1="3.550" y1="8.443" x2="3.550" y2="20.907" stroke="#000000" stroke-width="0.100" />
<line x1="11.000" y1="8.443" x2="11.000" y2="20.907" stroke="#000000" stroke-width="0.100" />
<path stroke="#000000" fill="none" stroke-width="0.100"  d="M 3.550,8.443 C 7.275,5.950 11.000,8.443 11.000,8.443 "/>
<path stroke="#000000" fill="none" stroke-width="0.100"  d="M 3.550,20.907 C 7.275,23.400 11.000,20.907 11.000,20.907 "/>
<line x1="3.550" y1="9.689" x2="11.000" y2="9.689" stroke="#000000" stroke-width="0.100" stroke-dasharray="0.28,0.28"/>
<line x1="3.550" y1="10.313" x2="11.000" y2="10.313" stroke="#000000" stroke-width="0.100" stroke-dasharray="0.28,0.28"/>
<line x1="3.550" y1="10.936" x2="11.000" y2="10.936" stroke="#000000" stroke-width="0.100" stroke-dasharray="0.28,0.28"/>
<line x1="3.550" y1="18.414" x2="11.000" y2="18.414" stroke="#000000" stroke-width="0.100" stroke-dasharray="0.28,0.28"/>
<line x1="3.550" y1="19.038" x2="11.000" y2="19.038" stroke="#000000" stroke-width="0.100" stroke-dasharray="0.28,0.28"/>
<line x1="3.550" y1="19.661" x2="11.000" y2="19.661" stroke="#000000" stroke-width="0.100" stroke-dasharray="0.28,0.28"/>
<polygon fill="#FFFFFF" stroke="none" stroke-width="0.100" points="15.900,3.914 24.550,3.914 24.550,20.986 15.900,20.986 "/>
<path stroke="none" fill="#FFFFFF" stroke-width="0.100" d="M 15.900,3.914 C 20.225,0.500 24.550,3.914 24.550,3.914 L 15.900,3.914 "/>
<path stroke="none" fill="#FFFFFF" stroke-width="0.100" d="M 15.900,20.986 C 20.225,24.400 24.550,20.986 24.550,20.986 L 15.900,20.986 "/>
<line x1="15.900" y1="3.914" x2="15.900" y2="20.986" stroke="#000000" stroke-width="0.100" />
<line x1="24.550" y1="3.914" x2="24.550" y2="20.986" stroke="#000000" stroke-width="0.100" />
<path stroke="#000000" fill="none" stroke-width="0.100"  d="M 15.900,3.914 C 20.225,0.500 24.550,3.914 24.550,3.914 "/>
<path stroke="#000000" fill="none" stroke-width="0.100"  d="M 15.900,20.986 C 20.225,24.400 24.550,20.986 24.550,20.986 "/>
<line x1="15.900" y1="5.621" x2="24.550" y2="5.621" stroke="#000000" stroke-width="0.100" stroke-dasharray="0.28,0.28"/>
<line x1="15.900" y1="6.475" x2="24.550" y2="6.475" stroke="#000000" stroke-width="0.100" stroke-dasharray="0.28,0.28"/>
<line x1="15.900" y1="7.329" x2="24.550" y2="7.329" stroke="#000000" stroke-width="0.100" stroke-dasharray="0.28,0.28"/>
<line x1="15.900" y1="17.571" x2="24.550" y2="17.571" stroke="#000000" stroke-width="0.100" stroke-dasharray="0.28,0.28"/>
<line x1="15.900" y1="18.425" x2="24.550" y2="18.425" stroke="#000000" stroke-width="0.100" stroke-dasharray="0.28,0.28"/>
<line x1="15.900" y1="19.279" x2="24.550" y2="19.279" stroke="#000000" stroke-width="0.100" stroke-dasharray="0.28,0.28"/>
<text x="2.350" y="1.850"  fill="#000000" text-anchor="start" font-size="0.80" font-family="sans" font-style="normal" font-weight="400">
{{periodic 5|ecmd kty get|store kty}}</text>
<text x="4.675" y="14.625"  fill="#000000" text-anchor="start" font-size="0.70" font-family="sans" font-style="normal" font-weight="400">
Warmwasser</text>
<text x="4.675" y="15.325"  fill="#000000" text-anchor="start" font-size="0.70" font-family="sans" font-style="normal" font-weight="400">
Temp: %%periodic 1|get kty|cut 3%%</text>
<text x="19.365" y="3.962"  fill="#000000" text-anchor="start" font-size="0.80" font-family="sans" font-style="normal" font-weight="400">
Puffer</text>
<text x="16.575" y="8.250"  fill="#000000" text-anchor="start" font-size="0.70" font-family="sans" font-style="normal" font-weight="400">
Oben: %%periodic 1| get kty|cut 1%%</text>
<text x="16.465" y="16.995"  fill="#000000" text-anchor="start" font-size="0.70" font-family="sans" font-style="normal" font-weight="400">
Unten: %%periodic 1| get kty|cut 2%%</text>
<rect x="28.163" y="12.925" width="10.612" height="1.225" fill="#FFFFFF" stroke="none" stroke-width="0"/>
<rect x="28.163" y="12.925" width="10.612" height="1.225" fill="none" stroke="#000000" stroke-width="0.100" />
<rect x="38.763" y="11.300" width="5.400" height="11.125" fill="#FFFFFF" stroke="none" stroke-width="0"/>
<rect x="38.763" y="11.300" width="5.400" height="11.125" fill="none" stroke="#000000" stroke-width="0.100" />
<line x1="39.663" y1="11.300" x2="39.663" y2="22.425" stroke="#000000" stroke-width="0.100" />
<line x1="42.363" y1="11.300" x2="42.363" y2="22.425" stroke="#000000" stroke-width="0.100" />
<line x1="43.263" y1="11.300" x2="43.263" y2="22.425" stroke="#000000" stroke-width="0.100" />
<line x1="41.463" y1="11.300" x2="41.463" y2="22.425" stroke="#000000" stroke-width="0.100" />
<line x1="40.563" y1="11.300" x2="40.563" y2="22.425" stroke="#000000" stroke-width="0.100" />
<text x="28.688" y="13.725"  fill="#000000" text-anchor="start" font-size="0.80" font-family="sans" font-style="normal" font-weight="400">
Vorlauf: %%periodic 1|get kty|cut 4%%</text>
<line x1="29.025" y1="12.000" x2="36.938" y2="12.000" stroke="#000000" stroke-width="0.100" />
<polygon fill="#000000" stroke="none" stroke-width="0.100" points="37.313,12.000 36.813,12.250 36.938,12.000 36.813,11.750 "/>
<polygon fill="none" stroke="#000000" stroke-width="0.100"  points="37.313,12.000 36.813,12.250 36.938,12.000 36.813,11.750 "/>
<rect x="28.140" y="19.270" width="10.613" height="1.225" fill="#FFFFFF" stroke="none" stroke-width="0"/>
<rect x="28.140" y="19.270" width="10.613" height="1.225" fill="none" stroke="#000000" stroke-width="0.100" />
<text x="28.640" y="20.113"  fill="#000000" text-anchor="start" font-size="0.80" font-family="sans" font-style="normal" font-weight="400">
Ruecklauf: %%periodic 1|get kty|cut 5%%</text>
<line x1="37.125" y1="21.450" x2="29.962" y2="21.450" stroke="#000000" stroke-width="0.100" />
<polygon fill="#000000" stroke="none" stroke-width="0.100" points="29.587,21.450 30.087,21.200 29.962,21.450 30.087,21.700 "/>
<polygon fill="none" stroke="#000000" stroke-width="0.100"  points="29.587,21.450 30.087,21.200 29.962,21.450 30.087,21.700 "/>
<polygon fill="#FFFFFF" stroke="none" stroke-width="0.100" points="34.675,0.550 36.975,0.550 36.975,3.195 39.275,4.959 39.275,9.368 32.375,9.368 32.375,4.959 34.675,3.195 "/>
<polyline fill="none" stroke="#000000" stroke-width="0.100"  points="36.975,0.550 36.975,3.195 39.275,4.959 39.275,9.368 32.375,9.368 32.375,4.959 34.675,3.195 34.675,0.550 "/>
<line x1="35.825" y1="10.250" x2="35.825" y2="8.839" stroke="#000000" stroke-width="0.100" />
<path stroke="none" fill="#FFFFFF" stroke-width="0.100" d="M 35.825,8.486 C 35.940,8.486 36.055,8.575 36.055,8.663 C 36.055,8.751 35.940,8.839 35.825,8.839 C 35.710,8.839 35.595,8.751 35.595,8.663 C 35.595,8.575 35.710,8.486 35.825,8.486 "/>
<path stroke="#000000" fill="none" stroke-width="0.100"  d="M 35.825,8.486 C 35.940,8.486 36.055,8.575 36.055,8.663 C 36.055,8.751 35.940,8.839 35.825,8.839 C 35.710,8.839 35.595,8.751 35.595,8.663 C 35.595,8.575 35.710,8.486 35.825,8.486 "/>
<text x="33.825" y="6.814"  fill="#000000" text-anchor="start" font-size="0.80" font-family="sans" font-style="normal" font-weight="400">
Kessel: %%periodic 1|get kty|cut 6%%</text>
</svg>